<svg width="56" height="27" viewBox="0 0 56 27" fill="#000000" xmlns="http://www.w3.org/2000/svg">
<path d="M53.3596 12.304C52.229 11.6213 51.0236 11.12 49.7436 10.8C48.4636 10.4587 46.9276 10.224 45.1356 10.096C44.9863 10.0747 44.837 10.064 44.6876 10.064C44.5596 10.0427 44.4316 10.032 44.3036 10.032C43.8556 10.032 43.6316 10.2133 43.6316 10.576C43.6316 10.7893 43.749 10.9387 43.9836 11.024C44.2396 11.088 44.581 11.1413 45.0076 11.184C45.8396 11.2907 46.7143 11.4187 47.6316 11.568C48.549 11.696 49.445 11.8987 50.3196 12.176C51.1943 12.4533 51.9836 12.8587 52.6876 13.392C53.413 13.9253 53.9783 14.6293 54.3836 15.504C54.8103 16.3787 55.0236 17.4773 55.0236 18.8C55.0236 20.272 54.6823 21.5093 53.9996 22.512C53.317 23.4933 52.389 24.2827 51.2156 24.88C50.0636 25.456 48.741 25.872 47.2476 26.128C45.7756 26.384 44.2503 26.512 42.6716 26.512C40.837 26.5333 39.013 26.4267 37.1996 26.192C35.4076 25.9787 33.8183 25.7013 32.4316 25.36L33.3276 14.096C33.8183 14.4587 34.405 14.8533 35.0876 15.28C35.7703 15.6853 36.6983 16.0587 37.8716 16.4C39.045 16.7413 40.5916 17.008 42.5116 17.2C42.6183 17.2213 42.7143 17.232 42.7996 17.232C42.9063 17.232 43.0023 17.232 43.0876 17.232C43.3223 17.232 43.493 17.2 43.5996 17.136C43.7276 17.072 43.7916 16.9333 43.7916 16.72C43.7916 16.4853 43.685 16.336 43.4716 16.272C43.2796 16.208 42.9703 16.144 42.5436 16.08C41.3916 15.952 40.2396 15.7707 39.0876 15.536C37.957 15.3013 36.9223 14.9387 35.9836 14.448C35.045 13.9573 34.2876 13.2747 33.7116 12.4C33.157 11.5253 32.8796 10.384 32.8796 8.97599C32.8796 6.97066 33.349 5.38132 34.2876 4.20799C35.2476 3.01332 36.5383 2.15999 38.1596 1.64799C39.781 1.11466 41.5943 0.847992 43.5996 0.847992C45.285 0.847992 47.045 1.00799 48.8796 1.32799C50.7143 1.62666 52.5276 2.04266 54.3196 2.57599L53.3596 12.304Z" fill="black"/>
<path d="M14.6159 26H3.57592L0.0239258 1.35999H9.84793L10.2319 17.456H10.5199L12.3759 1.35999H19.9279L21.7519 17.488H22.0399L22.4559 1.35999H32.2799L28.9839 26H17.9759L16.4399 19.504H16.1519L14.6159 26Z" fill="black"/>
</svg>
